<svg width="24" height="21" viewBox="0 0 24 21" fill="none" xmlns="http://www.w3.org/2000/svg">
<path fill-rule="evenodd" clip-rule="evenodd" d="M12 3.05341C9.55575 3.05341 9.24926 3.06213 8.28931 3.09899C7.33137 3.13576 6.67712 3.26382 6.10466 3.45108C5.51283 3.64462 5.01092 3.90362 4.51055 4.32471C4.01021 4.74584 3.70247 5.16825 3.47251 5.66635C3.25001 6.14815 3.09785 6.69877 3.05416 7.505C3.01036 8.31291 3 8.57086 3 10.628C3 12.6851 3.01036 12.9431 3.05416 13.751C3.09785 14.5572 3.25001 15.1078 3.47251 15.5896C3.70247 16.0877 4.01021 16.5101 4.51055 16.9313C5.01092 17.3524 5.51283 17.6114 6.10466 17.8049C6.67712 17.9922 7.33137 18.1202 8.28931 18.157C9.24926 18.1939 9.55575 18.2026 12 18.2026C14.4443 18.2026 14.7507 18.1939 15.7107 18.157C16.6686 18.1202 17.3229 17.9922 17.8953 17.8049C18.4872 17.6114 18.9891 17.3524 19.4895 16.9313C19.9898 16.5101 20.2975 16.0877 20.5275 15.5896C20.75 15.1078 20.9021 14.5572 20.9458 13.751C20.9896 12.9431 21 12.6851 21 10.628C21 8.57086 20.9896 8.31291 20.9458 7.505C20.9021 6.69877 20.75 6.14815 20.5275 5.66635C20.2975 5.16825 19.9898 4.74584 19.4895 4.32471C18.9891 3.90362 18.4872 3.64462 17.8953 3.45108C17.3229 3.26382 16.6686 3.13576 15.7107 3.09899C14.7507 3.06213 14.4443 3.05341 12 3.05341ZM12 4.41819C14.4031 4.41819 14.6878 4.42592 15.6368 4.46236C16.5143 4.49604 16.9908 4.61943 17.3079 4.72317C17.728 4.86057 18.0278 5.02471 18.3428 5.28979C18.6577 5.55483 18.8528 5.80715 19.016 6.16072C19.1393 6.42762 19.2859 6.82869 19.3259 7.56721C19.3692 8.36592 19.3784 8.60549 19.3784 10.628C19.3784 12.6505 19.3692 12.8901 19.3259 13.6888C19.2859 14.4273 19.1393 14.8284 19.016 15.0953C18.8528 15.4488 18.6577 15.7012 18.3428 15.9662C18.0278 16.2313 17.728 16.3954 17.3079 16.5328C16.9908 16.6365 16.5143 16.7599 15.6368 16.7936C14.6879 16.8301 14.4033 16.8378 12 16.8378C9.59672 16.8378 9.31213 16.8301 8.36323 16.7936C7.48574 16.7599 7.00919 16.6365 6.69206 16.5328C6.27196 16.3954 5.97215 16.2313 5.65723 15.9662C5.34231 15.7012 5.14725 15.4488 4.98398 15.0953C4.86073 14.8284 4.71411 14.4273 4.6741 13.6888C4.6308 12.8901 4.62162 12.6505 4.62162 10.628C4.62162 8.60549 4.6308 8.36592 4.6741 7.56721C4.71411 6.82869 4.86073 6.42762 4.98398 6.16072C5.14725 5.80715 5.34227 5.55483 5.65723 5.28979C5.97215 5.02471 6.27196 4.86057 6.69206 4.72317C7.00919 4.61943 7.48574 4.49604 8.36323 4.46236C9.31224 4.42592 9.5969 4.41819 12 4.41819ZM7.37838 10.628C7.37838 8.47978 9.44753 6.73834 12 6.73834C14.5525 6.73834 16.6216 8.47978 16.6216 10.628C16.6216 12.7762 14.5525 14.5176 12 14.5176C9.44753 14.5176 7.37838 12.7762 7.37838 10.628ZM12 13.1529C10.3431 13.1529 9 12.0224 9 10.628C9 9.23354 10.3431 8.10313 12 8.10313C13.6569 8.10313 15 9.23354 15 10.628C15 12.0224 13.6569 13.1529 12 13.1529ZM16.8042 7.4936C17.4007 7.4936 17.8842 7.08667 17.8842 6.58467C17.8842 6.08266 17.4007 5.6757 16.8042 5.6757C16.2078 5.6757 15.7242 6.08266 15.7242 6.58467C15.7242 7.08667 16.2078 7.4936 16.8042 7.4936Z" fill="#0081FE"/>
</svg>
