<svg width="24" height="21" viewBox="0 0 24 21" fill="none" xmlns="http://www.w3.org/2000/svg">
<path d="M12.6144 18.2026H3.99346C3.44463 18.2026 3 17.8281 3 17.3664V3.88952C3 3.42767 3.4447 3.05341 3.99346 3.05341H20.0066C20.5552 3.05341 21 3.42767 21 3.88952V17.3664C21 17.8282 20.5552 18.2026 20.0066 18.2026H15.4197V12.336H17.7594L18.1098 10.0497H15.4197V8.59C15.4197 7.92806 15.6381 7.47697 16.766 7.47697L18.2045 7.47644V5.43154C17.9557 5.40368 17.1018 5.34143 16.1083 5.34143C14.0343 5.34143 12.6144 6.4069 12.6144 8.36357V10.0497H10.2687V12.336H12.6144V18.2026Z" fill="#0081FE"/>
</svg>
